<svg width="560" height="560" viewBox="0 0 560 560" fill="none" xmlns="http://www.w3.org/2000/svg">
<path d="M472 0H88C39.3989 0 0 39.3989 0 88V472C0 520.601 39.3989 560 88 560H472C520.601 560 560 520.601 560 472V88C560 39.3989 520.601 0 472 0Z" fill="#1877F2"/>
<path d="M420 100H140C132.268 100 126 106.268 126 114V146C126 153.732 132.268 160 140 160H420C427.732 160 434 153.732 434 146V114C434 106.268 427.732 100 420 100Z" fill="white"/>
<path d="M420 175H322C314.268 175 308 181.268 308 189V221C308 228.732 314.268 235 322 235H420C427.732 235 434 228.732 434 221V189C434 181.268 427.732 175 420 175Z" fill="white"/>
<path d="M329 250H231C223.268 250 217 256.268 217 264V296C217 303.732 223.268 310 231 310H329C336.732 310 343 303.732 343 296V264C343 256.268 336.732 250 329 250Z" fill="white"/>
<path d="M238 325H140C132.268 325 126 331.268 126 339V371C126 378.732 132.268 385 140 385H238C245.732 385 252 378.732 252 371V339C252 331.268 245.732 325 238 325Z" fill="white"/>
<path d="M420 400H140C132.268 400 126 406.268 126 414V446C126 453.732 132.268 460 140 460H420C427.732 460 434 453.732 434 446V414C434 406.268 427.732 400 420 400Z" fill="white"/>
</svg>
